# xmcd CD database file
#
# Track frame offsets:
#	150
#	23634
#	44468
#	69506
#	94741
#	117990
#	140984
#	167938
#	190601
#	215522
#	234846
#
# Disc length: 3502 seconds
#
# Revision: 1
# Processed by: cddbd v1.5.2PL0 Copyright (c) Steve Scherf et al.
# Submitted via: CDex 1.70beta3
#
DISCID=990dac0b
DTITLE=Jazztronik - Jazztronik Works (Disc2 Sessions Side)
DYEAR=2009
DGENRE=Club
TTITLE0=Jazatronik × Asako Toki from "Cymbals" - joker man
TTITLE1=有坂美香 - Sparkle
TTITLE2=bird - flow
TTITLE3=山崎まさよし - いかれたBaby
TTITLE4=ゴスペラーズ - 街角 - on the corner -
TTITLE5=唐沢美帆 - フレグランス
TTITLE6=多和田えみ - eternity
TTITLE7=MIHO - Rock The Boat
TTITLE8=一十三十一 - フライデイ
TTITLE9=E.G.G.MAN and JAZZTRONIK - イイ感ヂ
TTITLE10=葉加瀬太郎 - Dolce Vita
EXTD=YEAR: 2009
EXTT0=
EXTT1=
EXTT2=
EXTT3=
EXTT4=
EXTT5=
EXTT6=
EXTT7=
EXTT8=
EXTT9=
EXTT10=
PLAYORDER=
